<?xml version="1.0" standalone="no"?>
<!DOCTYPE svg PUBLIC "-//W3C//DTD SVG 20010904//EN"
 "http://www.w3.org/TR/2001/REC-SVG-20010904/DTD/svg10.dtd">
<svg version="1.0" xmlns="http://www.w3.org/2000/svg"
 width="210.000000pt" height="210.000000pt" viewBox="0 0 210.000000 210.000000"
 preserveAspectRatio="xMidYMid meet">
<metadata>
Created by potrace 1.14, written by Peter Selinger 2001-2017
</metadata>
<g transform="translate(0.000000,210.000000) scale(0.100000,-0.100000)"
fill="#000000" stroke="none">
<path d="M1240 2034 c-30 -8 -80 -19 -110 -25 -30 -6 -59 -14 -65 -17 -5 -4
-19 -7 -30 -8 -11 0 -30 -4 -42 -8 -12 -4 -30 -8 -40 -10 -10 -2 -36 -9 -58
-14 -22 -6 -52 -13 -67 -16 -15 -2 -31 -7 -35 -9 -5 -3 -24 -8 -43 -11 -64
-11 -142 -35 -159 -49 -9 -7 -59 -49 -111 -92 -52 -44 -97 -82 -100 -85 -3 -3
-27 -23 -55 -45 -27 -21 -59 -47 -70 -57 -38 -33 -70 -60 -127 -106 -32 -25
-58 -53 -58 -62 0 -20 26 -34 35 -20 17 27 21 -4 22 -155 1 -148 0 -166 -16
-177 -28 -20 -35 -55 -17 -82 8 -13 11 -27 7 -32 -8 -9 -81 -187 -81 -198 0
-7 247 -2 254 5 3 2 -16 49 -41 104 -37 80 -43 102 -34 117 17 28 13 59 -11
79 -11 11 -24 19 -27 19 -3 0 -6 64 -6 143 0 78 -3 152 -7 163 -6 20 -1 23 54
34 33 6 66 14 74 17 9 3 41 -52 105 -179 l93 -183 1 -220 c1 -121 -2 -224 -5
-230 -4 -5 -10 -19 -13 -30 -3 -11 -17 -51 -31 -90 -39 -103 -67 -179 -70
-190 -2 -5 -6 -17 -9 -25 -4 -8 -16 -42 -27 -75 -12 -33 -26 -69 -31 -80 -5
-11 -11 -29 -13 -41 -10 -51 -52 -49 891 -50 484 0 886 3 896 8 9 5 17 17 17
26 0 10 -45 140 -99 289 l-99 272 0 398 c0 219 -1 408 -1 421 -1 13 -12 34
-25 47 -23 23 -27 23 -207 24 -101 0 -213 0 -249 1 l-65 0 -83 168 c-45 92
-82 172 -82 178 0 7 10 19 23 27 12 9 46 37 75 64 39 35 52 53 47 66 -4 9 -10
17 -14 16 -3 -1 -31 -8 -61 -15z m-1062 -1016 c4 -31 -29 -48 -53 -28 -18 15
-19 46 -2 54 28 12 52 1 55 -26z m11 -121 c53 -119 52 -116 33 -116 -84 -3
-155 -1 -160 3 -2 3 12 43 33 90 44 98 58 102 94 23z"/>
</g>
</svg>
